<?xml version="1.0" encoding="utf-8"?>
<!-- Generator: Adobe Illustrator 23.0.1, SVG Export Plug-In . SVG Version: 6.00 Build 0)  -->
<svg version="1.1" id="Layer_1" xmlns="http://www.w3.org/2000/svg" xmlns:xlink="http://www.w3.org/1999/xlink" x="0px" y="0px"
	 viewBox="0 0 1124 1462" style="enable-background:new 0 0 1124 1462;" xml:space="preserve">
<style type="text/css">
	.st0{fill:none;}
	.st1{fill:#0E0E0E;}
	.st2{fill-rule:evenodd;clip-rule:evenodd;fill:none;}
	.st3{fill:none;stroke:#9FA0A1;stroke-width:6;stroke-miterlimit:10;}
	.st4{fill:none;stroke:#262626;stroke-width:4;stroke-miterlimit:10;}
	.st5{enable-background:new    ;}
	.st6{clip-path:url(#SVGID_2_);}
	.st7{clip-path:url(#SVGID_4_);fill:#222222;}
	.st8{clip-path:url(#SVGID_6_);}
	.st9{clip-path:url(#SVGID_8_);fill:none;stroke:#262626;stroke-width:4;stroke-miterlimit:10;}
	.st10{opacity:0.4998;fill:none;stroke:#F8F8F8;stroke-width:2;stroke-miterlimit:10;}
	.st11{opacity:0.3991;fill:none;stroke:#28292A;stroke-width:4;stroke-miterlimit:10;}
</style>
<path class="st0" d="M991,0h58c1.1,0,2,0.9,2,2s-0.9,2-2,2h-58c-1.1,0-2-0.9-2-2S989.9,0,991,0z"/>
<path class="st0" d="M1120,219v-50c0-1.1,0.9-2,2-2s2,0.9,2,2v50c0,1.1-0.9,2-2,2S1120,220.1,1120,219z"/>
<path class="st0" d="M1120,155v-50c0-1.1,0.9-2,2-2s2,0.9,2,2v50c0,1.1-0.9,2-2,2S1120,156.1,1120,155z"/>
<g>
	<path class="st1" d="M3,1376.96V85.04c0-28.53,2.97-38.87,8.55-49.3c5.58-10.43,13.76-18.61,24.19-24.19
		C46.17,5.97,56.52,3,85.04,3h952.91c28.53,0,38.87,2.97,49.3,8.55s18.61,13.76,24.19,24.19c5.58,10.43,8.55,20.78,8.55,49.3
		v1291.91c0,28.53-2.97,38.87-8.55,49.3c-5.58,10.43-13.76,18.61-24.19,24.19s-20.77,8.55-49.3,8.55H85.04
		c-28.53,0-38.87-2.97-49.3-8.55c-10.43-5.58-18.61-13.76-24.19-24.19C5.97,1415.83,3,1405.48,3,1376.96z"/>
</g>
<path class="st2" d="M3,1376.96V85.04c0-28.53,2.97-38.87,8.55-49.3c5.58-10.43,13.76-18.61,24.19-24.19C46.17,5.97,56.52,3,85.04,3
	h952.91c28.53,0,38.87,2.97,49.3,8.55s18.61,13.76,24.19,24.19c5.58,10.43,8.55,20.78,8.55,49.3v1291.91
	c0,28.53-2.97,38.87-8.55,49.3c-5.58,10.43-13.76,18.61-24.19,24.19s-20.77,8.55-49.3,8.55H85.04c-28.53,0-38.87-2.97-49.3-8.55
	c-10.43-5.58-18.61-13.76-24.19-24.19C5.97,1415.83,3,1405.48,3,1376.96z"/>
<g>
	<path class="st3" d="M3,1376.96V85.04c0-28.53,2.97-38.87,8.55-49.3c5.58-10.43,13.76-18.61,24.19-24.19
		C46.17,5.97,56.52,3,85.04,3h952.91c28.53,0,38.87,2.97,49.3,8.55c10.43,5.58,18.61,13.76,24.19,24.19
		c5.58,10.43,8.55,20.78,8.55,49.3v1291.91c0,28.53-2.97,38.87-8.55,49.3c-5.58,10.43-13.76,18.61-24.19,24.19
		c-10.43,5.58-20.78,8.55-49.3,8.55H85.04c-28.53,0-38.87-2.97-49.3-8.55c-10.43-5.58-18.61-13.76-24.19-24.19
		C5.97,1415.83,3,1405.48,3,1376.96z"/>
</g>
<path class="st2" d="M3,1376.96V85.04c0-28.53,2.97-38.87,8.55-49.3c5.58-10.43,13.76-18.61,24.19-24.19C46.17,5.97,56.52,3,85.04,3
	h952.91c28.53,0,38.87,2.97,49.3,8.55s18.61,13.76,24.19,24.19c5.58,10.43,8.55,20.78,8.55,49.3v1291.91
	c0,28.53-2.97,38.87-8.55,49.3c-5.58,10.43-13.76,18.61-24.19,24.19s-20.77,8.55-49.3,8.55H85.04c-28.53,0-38.87-2.97-49.3-8.55
	c-10.43-5.58-18.61-13.76-24.19-24.19C5.97,1415.83,3,1405.48,3,1376.96z"/>
<g>
	<path class="st4" d="M48,1388.36V73.64c0-8.92,0.93-12.15,2.67-15.41c1.74-3.26,4.3-5.82,7.56-7.56C61.49,48.93,64.72,48,73.64,48
		h972.72c8.91,0,12.15,0.93,15.41,2.67c3.26,1.74,5.82,4.3,7.56,7.56c1.74,3.26,2.67,6.49,2.67,15.41v1314.72
		c0,8.92-0.93,12.15-2.67,15.41s-4.3,5.82-7.56,7.56c-3.26,1.74-6.49,2.67-15.41,2.67H73.64c-8.92,0-12.15-0.93-15.41-2.67
		c-3.26-1.74-5.82-4.3-7.56-7.56S48,1397.28,48,1388.36z"/>
</g>
<path class="st2" d="M48,1388.36V73.64c0-8.92,0.93-12.15,2.67-15.41c1.74-3.26,4.3-5.82,7.56-7.56C61.49,48.93,64.72,48,73.64,48
	h972.72c8.92,0,12.15,0.93,15.41,2.67c3.26,1.74,5.82,4.3,7.56,7.56c1.74,3.26,2.67,6.49,2.67,15.41v1314.72
	c0,8.92-0.93,12.15-2.67,15.41c-1.74,3.26-4.3,5.82-7.56,7.56c-3.26,1.74-6.49,2.67-15.41,2.67H73.64c-8.92,0-12.15-0.93-15.41-2.67
	c-3.26-1.74-5.82-4.3-7.56-7.56C48.93,1400.51,48,1397.28,48,1388.36z M28,1434V28h1064v1406H28z"/>
<g>
	<g class="st5">
		<g>
			<defs>
				<rect id="SVGID_1_" x="28" y="28" width="1064" height="1406"/>
			</defs>
			<clipPath id="SVGID_2_">
				<use xlink:href="#SVGID_1_"  style="overflow:visible;"/>
			</clipPath>
			<g class="st6">
				<defs>
					<rect id="SVGID_3_" x="48" y="48" width="1024" height="1366"/>
				</defs>
				<clipPath id="SVGID_4_">
					<use xlink:href="#SVGID_3_"  style="overflow:visible;"/>
				</clipPath>
				<rect x="43" y="43" class="st7" width="1034" height="1376"/>
			</g>
			<g class="st6">
				<defs>
					<path id="SVGID_5_" d="M48,1388.36V73.64c0-8.92,0.93-12.15,2.67-15.41c1.74-3.26,4.3-5.82,7.56-7.56
						C61.49,48.93,64.72,48,73.64,48h972.72c8.92,0,12.15,0.93,15.41,2.67c3.26,1.74,5.82,4.3,7.56,7.56
						c1.74,3.26,2.67,6.49,2.67,15.41v1314.72c0,8.92-0.93,12.15-2.67,15.41c-1.74,3.26-4.3,5.82-7.56,7.56
						c-3.26,1.74-6.49,2.67-15.41,2.67H73.64c-8.92,0-12.15-0.93-15.41-2.67c-3.26-1.74-5.82-4.3-7.56-7.56
						C48.93,1400.51,48,1397.28,48,1388.36z M28,1434V28h1064v1406H28z"/>
				</defs>
				<clipPath id="SVGID_6_">
					<use xlink:href="#SVGID_5_"  style="overflow:visible;"/>
				</clipPath>
				<g class="st8">
					<defs>
						<rect id="SVGID_7_" x="48" y="48" width="1024" height="1366"/>
					</defs>
					<clipPath id="SVGID_8_">
						<use xlink:href="#SVGID_7_"  style="overflow:visible;"/>
					</clipPath>
					<path class="st9" d="M48,1388.36V73.64c0-8.92,0.93-12.15,2.67-15.41c1.74-3.26,4.3-5.82,7.56-7.56
						C61.49,48.93,64.72,48,73.64,48h972.72c8.91,0,12.15,0.93,15.41,2.67c3.26,1.74,5.82,4.3,7.56,7.56
						c1.74,3.26,2.67,6.49,2.67,15.41v1314.72c0,8.92-0.93,12.15-2.67,15.41s-4.3,5.82-7.56,7.56c-3.26,1.74-6.49,2.67-15.41,2.67
						H73.64c-8.92,0-12.15-0.93-15.41-2.67c-3.26-1.74-5.82-4.3-7.56-7.56S48,1397.28,48,1388.36z"/>
				</g>
			</g>
		</g>
	</g>
</g>
<path class="st0" d="M48,1388.36V73.64c0-8.92,0.93-12.15,2.67-15.41c1.74-3.26,4.3-5.82,7.56-7.56C61.49,48.93,64.72,48,73.64,48
	h972.72c8.92,0,12.15,0.93,15.41,2.67c3.26,1.74,5.82,4.3,7.56,7.56c1.74,3.26,2.67,6.49,2.67,15.41v1314.72
	c0,8.92-0.93,12.15-2.67,15.41c-1.74,3.26-4.3,5.82-7.56,7.56c-3.26,1.74-6.49,2.67-15.41,2.67H73.64c-8.92,0-12.15-0.93-15.41-2.67
	c-3.26-1.74-5.82-4.3-7.56-7.56C48.93,1400.51,48,1397.28,48,1388.36z"/>
<path class="st10" d="M1.5,1376.96V85.04c0-28.53,2.97-38.87,8.55-49.3c5.58-10.43,13.76-18.61,24.19-24.19
	C44.67,5.97,55.02,3,83.54,3h952.91c28.53,0,38.87,2.97,49.3,8.55c10.43,5.58,18.61,13.76,24.19,24.19
	c5.58,10.43,8.55,20.78,8.55,49.3v1291.91c0,28.53-2.97,38.87-8.55,49.3c-5.58,10.43-13.76,18.61-24.19,24.19
	c-10.43,5.58-20.78,8.55-49.3,8.55H83.54c-28.53,0-38.87-2.97-49.3-8.55c-10.43-5.58-18.61-13.76-24.19-24.19
	C4.47,1415.83,1.5,1405.48,1.5,1376.96z"/>
<path class="st11" d="M3,1376.96V85.04c0-28.53,2.97-38.87,8.55-49.3c5.58-10.43,13.76-18.61,24.19-24.19
	C46.17,5.97,56.52,3,85.04,3h952.91c28.53,0,38.87,2.97,49.3,8.55c10.43,5.58,18.61,13.76,24.19,24.19
	c5.58,10.43,8.55,20.78,8.55,49.3v1291.91c0,28.53-2.97,38.87-8.55,49.3c-5.58,10.43-13.76,18.61-24.19,24.19
	c-10.43,5.58-20.78,8.55-49.3,8.55H85.04c-28.53,0-38.87-2.97-49.3-8.55c-10.43-5.58-18.61-13.76-24.19-24.19
	C5.97,1415.83,3,1405.48,3,1376.96z"/>
<path class="st2" d="M3,1376.96V85.04c0-28.53,2.97-38.87,8.55-49.3c5.58-10.43,13.76-18.61,24.19-24.19C46.17,5.97,56.52,3,85.04,3
	h952.91c28.53,0,38.87,2.97,49.3,8.55s18.61,13.76,24.19,24.19c5.58,10.43,8.55,20.78,8.55,49.3v1291.91
	c0,28.53-2.97,38.87-8.55,49.3c-5.58,10.43-13.76,18.61-24.19,24.19s-20.77,8.55-49.3,8.55H85.04c-28.53,0-38.87-2.97-49.3-8.55
	c-10.43-5.58-18.61-13.76-24.19-24.19C5.97,1415.83,3,1405.48,3,1376.96z"/>
</svg>
