<?xml version="1.0" encoding="utf-8"?>
<!-- Generator: Adobe Illustrator 23.0.1, SVG Export Plug-In . SVG Version: 6.00 Build 0)  -->
<svg version="1.1" id="Layer_1" xmlns="http://www.w3.org/2000/svg" xmlns:xlink="http://www.w3.org/1999/xlink" x="0px" y="0px"
	 viewBox="0 0 198.39 240.89" style="enable-background:new 0 0 198.39 240.89;" xml:space="preserve">
<g id="GEPVsu.tif">
	<g>
		<g>
			<path d="M168.47,97.06c9.28,10.93,15.74,23.99,17.91,38.82c4.61,31.6-6.72,57.76-30.36,77.81
				c-35.15,29.8-74.72,34.76-117.13,16.65c-0.74-0.31-1.4-0.81-2.58-1.51c5.66-8.18,11.18-16.17,16.84-24.35
				c11.64,5.05,23.54,7.78,36.01,7.85c29.18,0.18,56.4-17.89,65.01-44.24c6.27-19.16,1.28-36.46-11.61-51.57
				c-0.86-1.01-3.43-1.26-4.98-0.9c-8.07,1.9-16.01,4.36-24.12,6.07c-2.74,0.58-3.8,1.41-4.54,4.07
				c-5.66,20.55-15.37,38.94-30.1,54.49c-9.2,9.72-19.73,17.42-33.12,20.33c-21.68,4.71-40.67-7.93-44.66-29.78
				c-3.04-16.66,0.92-32.47,6.61-47.9c9.56-25.96,23.9-48.95,43.61-68.49c0.69-0.69,1.34-1.42,2.4-2.54
				c-4.79-4.42-9.39-8.67-14.41-13.3c6.95-7.52,13.89-15.05,21.42-23.2c5.94,5.27,11.71,10.39,17.41,15.45
				c8.22-5.03,16.25-10.4,24.69-15.01c16.97-9.25,34.73-16.03,54.52-15.79c23.5,0.29,41.39,16.87,41.08,38.66
				c-0.19,13.55-4.9,25.83-12.62,36.79C180.61,82.76,174.6,89.46,168.47,97.06z M112.05,93.46c17.86-1.5,32.74-10.36,43.98-24.85
				c4.77-6.15,8.49-13.58,10.82-21.01c3.15-10.06-2.55-17.25-13.1-18.44c-2.94-0.33-6.03-0.37-8.94,0.12
				c-18.88,3.18-34.68,12.85-49.16,23.03C101.17,66.15,106.43,79.35,112.05,93.46z M69.79,74.92c-14,14.47-23.96,30.82-31.3,48.82
				c-4.41,10.83-8.06,21.88-7.65,33.8c0.2,5.87,1.5,11.47,7.31,14.32c5.67,2.77,9.94-1.05,13.92-4.19
				c9.34-7.36,15.39-17.26,20.77-27.69C84.24,117.93,82.74,96.54,69.79,74.92z"/>
		</g>
	</g>
</g>
</svg>
