<?xml version="1.0" encoding="utf-8"?>
<!-- Generator: Adobe Illustrator 23.0.1, SVG Export Plug-In . SVG Version: 6.00 Build 0)  -->
<svg version="1.1" id="Layer_1" xmlns="http://www.w3.org/2000/svg" xmlns:xlink="http://www.w3.org/1999/xlink" x="0px" y="0px"
	 viewBox="0 0 50 59.28" style="enable-background:new 0 0 50 59.28;" xml:space="preserve">
<style type="text/css">
	.st0{fill:none;stroke:#000000;stroke-width:5;stroke-miterlimit:10;}
</style>
<g>
	<path class="st0" d="M5.21,14.66c0,0,19.23-4.01,19.08,11.67c-0.11,10.82-7.61,17.05-7.61,17.05s-3.18,3.66-7.84,3.27
		c-6.47-0.53-6.32-7.84-6.32-7.84S1.38,28.55,17.13,13.69C33.27-1.53,42.25,3.19,42.25,3.19s7.38,3.04,4.64,11.11
		S35.02,24.88,35.02,24.88s-2.09,0.76-5.59,0.91"/>
	<path class="st0" d="M12.03,54.19c0,0,17.37,7.76,28.71-3.58s2.89-21.62,2.89-21.62s-3.79-5.61-10.58-3.6"/>
</g>
</svg>
